%TF.GenerationSoftware,KiCad,Pcbnew,(6.0.1)*%
%TF.CreationDate,2022-06-17T15:58:33+01:00*%
%TF.ProjectId,luminaire,6c756d69-6e61-4697-9265-2e6b69636164,rev?*%
%TF.SameCoordinates,Original*%
%TF.FileFunction,Legend,Bot*%
%TF.FilePolarity,Positive*%
%FSLAX46Y46*%
G04 Gerber Fmt 4.6, Leading zero omitted, Abs format (unit mm)*
G04 Created by KiCad (PCBNEW (6.0.1)) date 2022-06-17 15:58:33*
%MOMM*%
%LPD*%
G01*
G04 APERTURE LIST*
%ADD10C,0.200000*%
%ADD11C,0.150000*%
%ADD12C,0.120000*%
G04 APERTURE END LIST*
D10*
X142978571Y-92271428D02*
X144050000Y-92271428D01*
X144264285Y-92200000D01*
X144407142Y-92057142D01*
X144478571Y-91842857D01*
X144478571Y-91700000D01*
X144478571Y-93700000D02*
X144478571Y-92985714D01*
X142978571Y-92985714D01*
X144335714Y-95057142D02*
X144407142Y-94985714D01*
X144478571Y-94771428D01*
X144478571Y-94628571D01*
X144407142Y-94414285D01*
X144264285Y-94271428D01*
X144121428Y-94200000D01*
X143835714Y-94128571D01*
X143621428Y-94128571D01*
X143335714Y-94200000D01*
X143192857Y-94271428D01*
X143050000Y-94414285D01*
X142978571Y-94628571D01*
X142978571Y-94771428D01*
X143050000Y-94985714D01*
X143121428Y-95057142D01*
X142978571Y-96128571D02*
X144050000Y-96128571D01*
X144264285Y-96057142D01*
X144407142Y-95914285D01*
X144478571Y-95700000D01*
X144478571Y-95557142D01*
X144478571Y-97557142D02*
X144478571Y-96842857D01*
X142978571Y-96842857D01*
X144335714Y-98914285D02*
X144407142Y-98842857D01*
X144478571Y-98628571D01*
X144478571Y-98485714D01*
X144407142Y-98271428D01*
X144264285Y-98128571D01*
X144121428Y-98057142D01*
X143835714Y-97985714D01*
X143621428Y-97985714D01*
X143335714Y-98057142D01*
X143192857Y-98128571D01*
X143050000Y-98271428D01*
X142978571Y-98485714D01*
X142978571Y-98628571D01*
X143050000Y-98842857D01*
X143121428Y-98914285D01*
X142978571Y-99985714D02*
X144050000Y-99985714D01*
X144264285Y-99914285D01*
X144407142Y-99771428D01*
X144478571Y-99557142D01*
X144478571Y-99414285D01*
X144478571Y-101414285D02*
X144478571Y-100700000D01*
X142978571Y-100700000D01*
X144335714Y-102771428D02*
X144407142Y-102700000D01*
X144478571Y-102485714D01*
X144478571Y-102342857D01*
X144407142Y-102128571D01*
X144264285Y-101985714D01*
X144121428Y-101914285D01*
X143835714Y-101842857D01*
X143621428Y-101842857D01*
X143335714Y-101914285D01*
X143192857Y-101985714D01*
X143050000Y-102128571D01*
X142978571Y-102342857D01*
X142978571Y-102485714D01*
X143050000Y-102700000D01*
X143121428Y-102771428D01*
X142978571Y-103842857D02*
X144050000Y-103842857D01*
X144264285Y-103771428D01*
X144407142Y-103628571D01*
X144478571Y-103414285D01*
X144478571Y-103271428D01*
X144478571Y-105271428D02*
X144478571Y-104557142D01*
X142978571Y-104557142D01*
X144335714Y-106628571D02*
X144407142Y-106557142D01*
X144478571Y-106342857D01*
X144478571Y-106200000D01*
X144407142Y-105985714D01*
X144264285Y-105842857D01*
X144121428Y-105771428D01*
X143835714Y-105700000D01*
X143621428Y-105700000D01*
X143335714Y-105771428D01*
X143192857Y-105842857D01*
X143050000Y-105985714D01*
X142978571Y-106200000D01*
X142978571Y-106342857D01*
X143050000Y-106557142D01*
X143121428Y-106628571D01*
D11*
%TO.C,D6*%
X157858095Y-49252380D02*
X157858095Y-48252380D01*
X157620000Y-48252380D01*
X157477142Y-48300000D01*
X157381904Y-48395238D01*
X157334285Y-48490476D01*
X157286666Y-48680952D01*
X157286666Y-48823809D01*
X157334285Y-49014285D01*
X157381904Y-49109523D01*
X157477142Y-49204761D01*
X157620000Y-49252380D01*
X157858095Y-49252380D01*
X156429523Y-48252380D02*
X156620000Y-48252380D01*
X156715238Y-48300000D01*
X156762857Y-48347619D01*
X156858095Y-48490476D01*
X156905714Y-48680952D01*
X156905714Y-49061904D01*
X156858095Y-49157142D01*
X156810476Y-49204761D01*
X156715238Y-49252380D01*
X156524761Y-49252380D01*
X156429523Y-49204761D01*
X156381904Y-49157142D01*
X156334285Y-49061904D01*
X156334285Y-48823809D01*
X156381904Y-48728571D01*
X156429523Y-48680952D01*
X156524761Y-48633333D01*
X156715238Y-48633333D01*
X156810476Y-48680952D01*
X156858095Y-48728571D01*
X156905714Y-48823809D01*
%TO.C,D10*%
X154014285Y-113452380D02*
X154014285Y-112452380D01*
X153776190Y-112452380D01*
X153633333Y-112500000D01*
X153538095Y-112595238D01*
X153490476Y-112690476D01*
X153442857Y-112880952D01*
X153442857Y-113023809D01*
X153490476Y-113214285D01*
X153538095Y-113309523D01*
X153633333Y-113404761D01*
X153776190Y-113452380D01*
X154014285Y-113452380D01*
X152490476Y-113452380D02*
X153061904Y-113452380D01*
X152776190Y-113452380D02*
X152776190Y-112452380D01*
X152871428Y-112595238D01*
X152966666Y-112690476D01*
X153061904Y-112738095D01*
X151871428Y-112452380D02*
X151776190Y-112452380D01*
X151680952Y-112500000D01*
X151633333Y-112547619D01*
X151585714Y-112642857D01*
X151538095Y-112833333D01*
X151538095Y-113071428D01*
X151585714Y-113261904D01*
X151633333Y-113357142D01*
X151680952Y-113404761D01*
X151776190Y-113452380D01*
X151871428Y-113452380D01*
X151966666Y-113404761D01*
X152014285Y-113357142D01*
X152061904Y-113261904D01*
X152109523Y-113071428D01*
X152109523Y-112833333D01*
X152061904Y-112642857D01*
X152014285Y-112547619D01*
X151966666Y-112500000D01*
X151871428Y-112452380D01*
%TO.C,D8*%
X147938095Y-113452380D02*
X147938095Y-112452380D01*
X147700000Y-112452380D01*
X147557142Y-112500000D01*
X147461904Y-112595238D01*
X147414285Y-112690476D01*
X147366666Y-112880952D01*
X147366666Y-113023809D01*
X147414285Y-113214285D01*
X147461904Y-113309523D01*
X147557142Y-113404761D01*
X147700000Y-113452380D01*
X147938095Y-113452380D01*
X146795238Y-112880952D02*
X146890476Y-112833333D01*
X146938095Y-112785714D01*
X146985714Y-112690476D01*
X146985714Y-112642857D01*
X146938095Y-112547619D01*
X146890476Y-112500000D01*
X146795238Y-112452380D01*
X146604761Y-112452380D01*
X146509523Y-112500000D01*
X146461904Y-112547619D01*
X146414285Y-112642857D01*
X146414285Y-112690476D01*
X146461904Y-112785714D01*
X146509523Y-112833333D01*
X146604761Y-112880952D01*
X146795238Y-112880952D01*
X146890476Y-112928571D01*
X146938095Y-112976190D01*
X146985714Y-113071428D01*
X146985714Y-113261904D01*
X146938095Y-113357142D01*
X146890476Y-113404761D01*
X146795238Y-113452380D01*
X146604761Y-113452380D01*
X146509523Y-113404761D01*
X146461904Y-113357142D01*
X146414285Y-113261904D01*
X146414285Y-113071428D01*
X146461904Y-112976190D01*
X146509523Y-112928571D01*
X146604761Y-112880952D01*
D12*
%TO.C,D6*%
X157320000Y-51500000D02*
X155620000Y-51500000D01*
X157320000Y-49500000D02*
X155620000Y-49500000D01*
%TO.C,D10*%
X154200000Y-112000000D02*
X152500000Y-112000000D01*
X154200000Y-110000000D02*
X152500000Y-110000000D01*
%TO.C,D8*%
X146320000Y-110000000D02*
X144620000Y-110000000D01*
X146320000Y-112000000D02*
X144620000Y-112000000D01*
%TO.C,BT1*%
X141435000Y-51880000D02*
X141435000Y-109120000D01*
X152940000Y-103810000D02*
X146940000Y-103810000D01*
X155600000Y-88400000D02*
X155600000Y-72600000D01*
X142400000Y-90400000D02*
X142400000Y-108400000D01*
X145940000Y-104810000D02*
X153940000Y-104810000D01*
X157600000Y-52600000D02*
X157600000Y-70600000D01*
X144400000Y-72600000D02*
X144400000Y-88400000D01*
X148940000Y-101810000D02*
X150940000Y-101810000D01*
X158565000Y-109120000D02*
X158565000Y-51880000D01*
X158565000Y-51880000D02*
X141435000Y-51880000D01*
X141435000Y-109120000D02*
X158565000Y-109120000D01*
X147940000Y-102810000D02*
X151940000Y-102810000D01*
X142400000Y-108400000D02*
X157600000Y-108400000D01*
X157600000Y-90400000D02*
X157600000Y-108400000D01*
X142400000Y-52600000D02*
X157600000Y-52600000D01*
X142400000Y-52600000D02*
X142400000Y-70600000D01*
X155600000Y-88400000D02*
G75*
G03*
X157600000Y-90400000I1999999J-1D01*
G01*
X157600000Y-70600000D02*
G75*
G03*
X155600000Y-72600000I-1J-1999999D01*
G01*
X142400000Y-90400000D02*
G75*
G03*
X144400000Y-88400000I1J1999999D01*
G01*
X144400000Y-72600000D02*
G75*
G03*
X142400000Y-70600000I-1999999J1D01*
G01*
%TD*%
M02*
