%TF.GenerationSoftware,KiCad,Pcbnew,(6.0.1)*%
%TF.CreationDate,2022-06-17T15:58:33+01:00*%
%TF.ProjectId,luminaire,6c756d69-6e61-4697-9265-2e6b69636164,rev?*%
%TF.SameCoordinates,Original*%
%TF.FileFunction,Copper,L1,Top*%
%TF.FilePolarity,Positive*%
%FSLAX46Y46*%
G04 Gerber Fmt 4.6, Leading zero omitted, Abs format (unit mm)*
G04 Created by KiCad (PCBNEW (6.0.1)) date 2022-06-17 15:58:33*
%MOMM*%
%LPD*%
G01*
G04 APERTURE LIST*
G04 Aperture macros list*
%AMRoundRect*
0 Rectangle with rounded corners*
0 $1 Rounding radius*
0 $2 $3 $4 $5 $6 $7 $8 $9 X,Y pos of 4 corners*
0 Add a 4 corners polygon primitive as box body*
4,1,4,$2,$3,$4,$5,$6,$7,$8,$9,$2,$3,0*
0 Add four circle primitives for the rounded corners*
1,1,$1+$1,$2,$3*
1,1,$1+$1,$4,$5*
1,1,$1+$1,$6,$7*
1,1,$1+$1,$8,$9*
0 Add four rect primitives between the rounded corners*
20,1,$1+$1,$2,$3,$4,$5,0*
20,1,$1+$1,$4,$5,$6,$7,0*
20,1,$1+$1,$6,$7,$8,$9,0*
20,1,$1+$1,$8,$9,$2,$3,0*%
G04 Aperture macros list end*
%TA.AperFunction,SMDPad,CuDef*%
%ADD10R,1.250000X1.600000*%
%TD*%
%TA.AperFunction,SMDPad,CuDef*%
%ADD11RoundRect,0.150000X0.587500X0.150000X-0.587500X0.150000X-0.587500X-0.150000X0.587500X-0.150000X0*%
%TD*%
%TA.AperFunction,SMDPad,CuDef*%
%ADD12RoundRect,0.375000X0.725000X-0.375000X0.725000X0.375000X-0.725000X0.375000X-0.725000X-0.375000X0*%
%TD*%
%TA.AperFunction,SMDPad,CuDef*%
%ADD13RoundRect,0.250000X0.350000X0.450000X-0.350000X0.450000X-0.350000X-0.450000X0.350000X-0.450000X0*%
%TD*%
%TA.AperFunction,SMDPad,CuDef*%
%ADD14R,0.650000X1.560000*%
%TD*%
%TA.AperFunction,SMDPad,CuDef*%
%ADD15C,2.000000*%
%TD*%
%TA.AperFunction,SMDPad,CuDef*%
%ADD16R,1.400000X1.200000*%
%TD*%
%TA.AperFunction,SMDPad,CuDef*%
%ADD17RoundRect,0.250000X0.475000X-0.337500X0.475000X0.337500X-0.475000X0.337500X-0.475000X-0.337500X0*%
%TD*%
%TA.AperFunction,SMDPad,CuDef*%
%ADD18R,1.800000X2.500000*%
%TD*%
%TA.AperFunction,SMDPad,CuDef*%
%ADD19RoundRect,0.250000X-0.450000X0.350000X-0.450000X-0.350000X0.450000X-0.350000X0.450000X0.350000X0*%
%TD*%
%TA.AperFunction,ComponentPad*%
%ADD20R,2.000000X2.000000*%
%TD*%
%TA.AperFunction,ComponentPad*%
%ADD21C,2.000000*%
%TD*%
%TA.AperFunction,ViaPad*%
%ADD22C,0.600000*%
%TD*%
%TA.AperFunction,Conductor*%
%ADD23C,0.250000*%
%TD*%
G04 APERTURE END LIST*
D10*
%TO.P,D9,1,K*%
%TO.N,Net-(D9-Pad1)*%
X147000000Y-111000000D03*
%TO.P,D9,2,A*%
%TO.N,Net-(D8-Pad1)*%
X145240000Y-111000000D03*
%TD*%
D11*
%TO.P,Q1,1,B*%
%TO.N,Net-(Q1-Pad1)*%
X153937500Y-81450000D03*
%TO.P,Q1,2,E*%
%TO.N,Net-(Q1-Pad2)*%
X153937500Y-79550000D03*
%TO.P,Q1,3,C*%
%TO.N,Net-(D1-Pad2)*%
X152062500Y-80500000D03*
%TD*%
D12*
%TO.P,L1,1,1*%
%TO.N,Net-(L1-Pad1)*%
X150000000Y-91250000D03*
%TO.P,L1,2,2*%
%TO.N,Net-(D1-Pad2)*%
X150000000Y-85750000D03*
%TD*%
D13*
%TO.P,R1,1*%
%TO.N,Net-(Q1-Pad2)*%
X153800000Y-68400000D03*
%TO.P,R1,2*%
%TO.N,Net-(R1-Pad2)*%
X151800000Y-68400000D03*
%TD*%
D14*
%TO.P,U1,1,VCC*%
%TO.N,Net-(L1-Pad1)*%
X146050000Y-81850000D03*
%TO.P,U1,2,GND*%
%TO.N,Net-(BT1-Pad2)*%
X147000000Y-81850000D03*
%TO.P,U1,3,STDN*%
%TO.N,Net-(L1-Pad1)*%
X147950000Y-81850000D03*
%TO.P,U1,4,ISENSE*%
%TO.N,Net-(SW1-Pad7)*%
X147950000Y-79150000D03*
%TO.P,U1,5,VDRIVE*%
%TO.N,Net-(Q1-Pad1)*%
X146050000Y-79150000D03*
%TD*%
D15*
%TO.P,TP2,1,1*%
%TO.N,Net-(D9-Pad1)*%
X145000000Y-65800000D03*
%TD*%
D10*
%TO.P,D7,1,K*%
%TO.N,Net-(D11-Pad1)*%
X144500000Y-53000000D03*
%TO.P,D7,2,A*%
%TO.N,Net-(D6-Pad1)*%
X142740000Y-53000000D03*
%TD*%
D16*
%TO.P,SW1,1,1*%
%TO.N,unconnected-(SW1-Pad1)*%
X158200000Y-60500000D03*
%TO.P,SW1,2,2*%
%TO.N,Net-(L1-Pad1)*%
X158200000Y-58500000D03*
%TO.P,SW1,3,3*%
%TO.N,Net-(BT1-Pad1)*%
X158200000Y-54500000D03*
%TO.P,SW1,4,4*%
%TO.N,Net-(L1-Pad1)*%
X158200000Y-52500000D03*
%TO.P,SW1,5,5*%
%TO.N,unconnected-(SW1-Pad5)*%
X153800000Y-60500000D03*
%TO.P,SW1,6,6*%
%TO.N,Net-(Q1-Pad2)*%
X153800000Y-58500000D03*
%TO.P,SW1,7,7*%
%TO.N,Net-(SW1-Pad7)*%
X153800000Y-54500000D03*
%TO.P,SW1,8,8*%
%TO.N,Net-(R1-Pad2)*%
X153800000Y-52500000D03*
%TD*%
D17*
%TO.P,C1,1*%
%TO.N,Net-(C1-Pad1)*%
X152000000Y-98537500D03*
%TO.P,C1,2*%
%TO.N,Net-(BT1-Pad2)*%
X152000000Y-96462500D03*
%TD*%
D18*
%TO.P,D1,1,K*%
%TO.N,Net-(C1-Pad1)*%
X148000000Y-99500000D03*
%TO.P,D1,2,A*%
%TO.N,Net-(D1-Pad2)*%
X148000000Y-95500000D03*
%TD*%
D10*
%TO.P,D11,1,K*%
%TO.N,Net-(D11-Pad1)*%
X154880000Y-111000000D03*
%TO.P,D11,2,A*%
%TO.N,Net-(D10-Pad1)*%
X153120000Y-111000000D03*
%TD*%
D13*
%TO.P,R2,1*%
%TO.N,Net-(Q1-Pad2)*%
X153800000Y-76200000D03*
%TO.P,R2,2*%
%TO.N,Net-(BT1-Pad2)*%
X151800000Y-76200000D03*
%TD*%
%TO.P,R3,1*%
%TO.N,Net-(R1-Pad2)*%
X153800000Y-66000000D03*
%TO.P,R3,2*%
%TO.N,Net-(BT1-Pad2)*%
X151800000Y-66000000D03*
%TD*%
D19*
%TO.P,R4,1*%
%TO.N,Net-(BT1-Pad2)*%
X147600000Y-63000000D03*
%TO.P,R4,2*%
%TO.N,Net-(D9-Pad1)*%
X147600000Y-65000000D03*
%TD*%
D15*
%TO.P,TP1,1,1*%
%TO.N,Net-(BT1-Pad2)*%
X145000000Y-61600000D03*
%TD*%
D20*
%TO.P,BT1,1,+*%
%TO.N,Net-(BT1-Pad1)*%
X150000000Y-54500000D03*
D21*
%TO.P,BT1,2,-*%
%TO.N,Net-(BT1-Pad2)*%
X150000000Y-106490000D03*
%TD*%
D22*
%TO.N,Net-(BT1-Pad2)*%
X150200000Y-76400000D03*
X148800000Y-75000000D03*
%TO.N,Net-(D1-Pad2)*%
X148000000Y-93200000D03*
X150000000Y-84000000D03*
%TO.N,Net-(L1-Pad1)*%
X157000000Y-52600000D03*
X158200000Y-57400000D03*
%TO.N,Net-(Q1-Pad2)*%
X153000000Y-78000000D03*
X153800000Y-73800000D03*
%TO.N,Net-(SW1-Pad7)*%
X149400000Y-77000000D03*
X148000000Y-74200000D03*
%TO.N,Net-(C1-Pad1)*%
X154800000Y-109200000D03*
%TO.N,Net-(D10-Pad1)*%
X151600000Y-111000000D03*
%TO.N,Net-(D11-Pad1)*%
X144000000Y-107800000D03*
X150000000Y-112600000D03*
%TO.N,Net-(D8-Pad1)*%
X143400000Y-110400000D03*
%TO.N,Net-(D6-Pad1)*%
X146000000Y-52200000D03*
%TD*%
D23*
%TO.N,Net-(BT1-Pad1)*%
X150000000Y-54500000D02*
X150000000Y-53400000D01*
X152200000Y-51200000D02*
X155000000Y-51200000D01*
X155000000Y-51200000D02*
X156200000Y-52400000D01*
X156200000Y-54000000D02*
X156700000Y-54500000D01*
X156700000Y-54500000D02*
X158200000Y-54500000D01*
X150000000Y-53400000D02*
X152200000Y-51200000D01*
X156200000Y-52400000D02*
X156200000Y-54000000D01*
%TO.N,Net-(BT1-Pad2)*%
X151800000Y-66000000D02*
X150400000Y-67400000D01*
X145000000Y-61600000D02*
X146400000Y-63000000D01*
X150400000Y-67400000D02*
X150400000Y-67600000D01*
X147000000Y-81850000D02*
X147000000Y-83800000D01*
X146200000Y-91600000D02*
X147000000Y-90800000D01*
X147000000Y-83800000D02*
X145400000Y-83800000D01*
X151600000Y-76400000D02*
X150200000Y-76400000D01*
X146200000Y-101000000D02*
X146200000Y-91600000D01*
X150400000Y-73400000D02*
X148800000Y-75000000D01*
X144600000Y-70600000D02*
X149000000Y-66200000D01*
X150000000Y-104800000D02*
X146200000Y-101000000D01*
X148200000Y-63000000D02*
X147600000Y-63000000D01*
X147000000Y-90800000D02*
X152000000Y-95800000D01*
X150000000Y-106490000D02*
X150000000Y-104800000D01*
X151800000Y-76200000D02*
X151600000Y-76400000D01*
X149000000Y-63800000D02*
X148200000Y-63000000D01*
X150400000Y-67600000D02*
X150400000Y-73400000D01*
X144600000Y-75000000D02*
X144600000Y-70600000D01*
X152000000Y-95800000D02*
X152000000Y-96462500D01*
X146400000Y-63000000D02*
X147600000Y-63000000D01*
X149000000Y-66200000D02*
X149000000Y-63800000D01*
X148800000Y-75000000D02*
X144600000Y-75000000D01*
X144600000Y-83000000D02*
X144600000Y-75000000D01*
X147000000Y-83800000D02*
X147000000Y-90800000D01*
X145400000Y-83800000D02*
X144600000Y-83000000D01*
%TO.N,Net-(D1-Pad2)*%
X148000000Y-93200000D02*
X148000000Y-95500000D01*
X152062500Y-83687500D02*
X152062500Y-80500000D01*
X152062500Y-83687500D02*
X150000000Y-85750000D01*
X150000000Y-84000000D02*
X150000000Y-85750000D01*
%TO.N,Net-(L1-Pad1)*%
X150000000Y-91250000D02*
X150000000Y-88800000D01*
X157100000Y-52500000D02*
X157000000Y-52600000D01*
X150000000Y-88800000D02*
X156200000Y-82600000D01*
X157300000Y-58500000D02*
X156200000Y-59600000D01*
X146050000Y-80950000D02*
X146050000Y-81850000D01*
X147950000Y-80750000D02*
X147600000Y-80400000D01*
X146600000Y-80400000D02*
X146050000Y-80950000D01*
X156200000Y-59600000D02*
X156200000Y-82600000D01*
X147600000Y-80400000D02*
X146600000Y-80400000D01*
X158200000Y-58500000D02*
X157300000Y-58500000D01*
X147950000Y-81850000D02*
X147950000Y-80750000D01*
X147950000Y-81850000D02*
X147950000Y-86750000D01*
X158200000Y-57400000D02*
X158200000Y-58500000D01*
X147950000Y-86750000D02*
X150000000Y-88800000D01*
X158200000Y-52500000D02*
X157100000Y-52500000D01*
%TO.N,Net-(Q1-Pad1)*%
X154550000Y-81450000D02*
X155200000Y-80800000D01*
X154400000Y-74600000D02*
X150600000Y-74600000D01*
X155200000Y-80800000D02*
X155200000Y-75400000D01*
X150600000Y-74600000D02*
X146050000Y-79150000D01*
X153937500Y-81450000D02*
X154550000Y-81450000D01*
X155200000Y-75400000D02*
X154400000Y-74600000D01*
%TO.N,Net-(Q1-Pad2)*%
X154700000Y-58500000D02*
X155400000Y-59200000D01*
X153937500Y-79550000D02*
X153937500Y-78137500D01*
X153800000Y-78000000D02*
X153937500Y-78137500D01*
X153800000Y-58500000D02*
X154700000Y-58500000D01*
X155400000Y-59200000D02*
X155400000Y-67800000D01*
X153000000Y-78000000D02*
X153800000Y-78000000D01*
X155400000Y-67800000D02*
X154800000Y-68400000D01*
X153937500Y-78137500D02*
X153937500Y-76337500D01*
X153800000Y-68400000D02*
X153800000Y-73800000D01*
X153937500Y-76337500D02*
X153800000Y-76200000D01*
X154800000Y-68400000D02*
X153800000Y-68400000D01*
%TO.N,Net-(R1-Pad2)*%
X155000000Y-55600000D02*
X155000000Y-53700000D01*
X152000000Y-61400000D02*
X152000000Y-57800000D01*
X153800000Y-63200000D02*
X152000000Y-61400000D01*
X153600000Y-56200000D02*
X154400000Y-56200000D01*
X154400000Y-56200000D02*
X155000000Y-55600000D01*
X152000000Y-57800000D02*
X153600000Y-56200000D01*
X153800000Y-66000000D02*
X153800000Y-63200000D01*
X153800000Y-66400000D02*
X153800000Y-66000000D01*
X155000000Y-53700000D02*
X153800000Y-52500000D01*
X151800000Y-68400000D02*
X153800000Y-66400000D01*
%TO.N,Net-(SW1-Pad7)*%
X153700000Y-54500000D02*
X153800000Y-54500000D01*
X149800000Y-58400000D02*
X153700000Y-54500000D01*
X149800000Y-72400000D02*
X149800000Y-58400000D01*
X149400000Y-77700000D02*
X149400000Y-77000000D01*
X148000000Y-74200000D02*
X149800000Y-72400000D01*
X147950000Y-79150000D02*
X149400000Y-77700000D01*
%TO.N,Net-(C1-Pad1)*%
X152000000Y-106400000D02*
X154800000Y-109200000D01*
X152000000Y-98537500D02*
X152000000Y-106400000D01*
X152000000Y-98537500D02*
X148962500Y-98537500D01*
X148962500Y-98537500D02*
X148000000Y-99500000D01*
%TO.N,Net-(D10-Pad1)*%
X151600000Y-111000000D02*
X153120000Y-111000000D01*
%TO.N,Net-(D11-Pad1)*%
X154880000Y-111000000D02*
X154880000Y-111920000D01*
X154880000Y-111920000D02*
X154200000Y-112600000D01*
X144500000Y-53500000D02*
X141600000Y-56400000D01*
X141600000Y-105400000D02*
X144000000Y-107800000D01*
X144500000Y-53000000D02*
X144500000Y-53500000D01*
X154200000Y-112600000D02*
X150000000Y-112600000D01*
X141600000Y-56400000D02*
X141600000Y-105400000D01*
%TO.N,Net-(D8-Pad1)*%
X145240000Y-111000000D02*
X144000000Y-111000000D01*
X144000000Y-111000000D02*
X143400000Y-110400000D01*
%TO.N,Net-(D6-Pad1)*%
X143600000Y-51600000D02*
X145400000Y-51600000D01*
X142740000Y-53000000D02*
X142740000Y-52460000D01*
X145400000Y-51600000D02*
X146000000Y-52200000D01*
X142740000Y-52460000D02*
X143600000Y-51600000D01*
%TO.N,Net-(D9-Pad1)*%
X145000000Y-65800000D02*
X145800000Y-65000000D01*
X143600000Y-105800000D02*
X147000000Y-109200000D01*
X145000000Y-65800000D02*
X143600000Y-67200000D01*
X145800000Y-65000000D02*
X147600000Y-65000000D01*
X143600000Y-67200000D02*
X143600000Y-105800000D01*
X147000000Y-109200000D02*
X147000000Y-111000000D01*
%TD*%
M02*
