%TF.GenerationSoftware,KiCad,Pcbnew,(6.0.1)*%
%TF.CreationDate,2022-06-17T15:58:33+01:00*%
%TF.ProjectId,luminaire,6c756d69-6e61-4697-9265-2e6b69636164,rev?*%
%TF.SameCoordinates,Original*%
%TF.FileFunction,Legend,Top*%
%TF.FilePolarity,Positive*%
%FSLAX46Y46*%
G04 Gerber Fmt 4.6, Leading zero omitted, Abs format (unit mm)*
G04 Created by KiCad (PCBNEW (6.0.1)) date 2022-06-17 15:58:33*
%MOMM*%
%LPD*%
G01*
G04 APERTURE LIST*
%ADD10C,0.200000*%
%ADD11C,0.300000*%
%ADD12C,0.150000*%
%ADD13C,0.120000*%
G04 APERTURE END LIST*
D10*
X143878571Y-102600000D02*
X142378571Y-102600000D01*
X142378571Y-102242857D01*
X142450000Y-102028571D01*
X142592857Y-101885714D01*
X142735714Y-101814285D01*
X143021428Y-101742857D01*
X143235714Y-101742857D01*
X143521428Y-101814285D01*
X143664285Y-101885714D01*
X143807142Y-102028571D01*
X143878571Y-102242857D01*
X143878571Y-102600000D01*
X143450000Y-101171428D02*
X143450000Y-100457142D01*
X143878571Y-101314285D02*
X142378571Y-100814285D01*
X143878571Y-100314285D01*
X142378571Y-100028571D02*
X143878571Y-99528571D01*
X142378571Y-99028571D01*
X143878571Y-98528571D02*
X142378571Y-98528571D01*
X143878571Y-97814285D02*
X142378571Y-97814285D01*
X142378571Y-97457142D01*
X142450000Y-97242857D01*
X142592857Y-97100000D01*
X142735714Y-97028571D01*
X143021428Y-96957142D01*
X143235714Y-96957142D01*
X143521428Y-97028571D01*
X143664285Y-97100000D01*
X143807142Y-97242857D01*
X143878571Y-97457142D01*
X143878571Y-97814285D01*
X142378571Y-95385714D02*
X142378571Y-94528571D01*
X143878571Y-94957142D02*
X142378571Y-94957142D01*
X142378571Y-94028571D02*
X143592857Y-94028571D01*
X143735714Y-93957142D01*
X143807142Y-93885714D01*
X143878571Y-93742857D01*
X143878571Y-93457142D01*
X143807142Y-93314285D01*
X143735714Y-93242857D01*
X143592857Y-93171428D01*
X142378571Y-93171428D01*
X143878571Y-91600000D02*
X143164285Y-92100000D01*
X143878571Y-92457142D02*
X142378571Y-92457142D01*
X142378571Y-91885714D01*
X142450000Y-91742857D01*
X142521428Y-91671428D01*
X142664285Y-91600000D01*
X142878571Y-91600000D01*
X143021428Y-91671428D01*
X143092857Y-91742857D01*
X143164285Y-91885714D01*
X143164285Y-92457142D01*
X143878571Y-90957142D02*
X142378571Y-90957142D01*
X143878571Y-90100000D01*
X142378571Y-90100000D01*
X143092857Y-89385714D02*
X143092857Y-88885714D01*
X143878571Y-88671428D02*
X143878571Y-89385714D01*
X142378571Y-89385714D01*
X142378571Y-88671428D01*
X143878571Y-87171428D02*
X143164285Y-87671428D01*
X143878571Y-88028571D02*
X142378571Y-88028571D01*
X142378571Y-87457142D01*
X142450000Y-87314285D01*
X142521428Y-87242857D01*
X142664285Y-87171428D01*
X142878571Y-87171428D01*
X143021428Y-87242857D01*
X143092857Y-87314285D01*
X143164285Y-87457142D01*
X143164285Y-88028571D01*
X143307142Y-85385714D02*
X143307142Y-84242857D01*
X142378571Y-81957142D02*
X143450000Y-81957142D01*
X143664285Y-82028571D01*
X143807142Y-82171428D01*
X143878571Y-82385714D01*
X143878571Y-82528571D01*
X142378571Y-81242857D02*
X143592857Y-81242857D01*
X143735714Y-81171428D01*
X143807142Y-81100000D01*
X143878571Y-80957142D01*
X143878571Y-80671428D01*
X143807142Y-80528571D01*
X143735714Y-80457142D01*
X143592857Y-80385714D01*
X142378571Y-80385714D01*
X143878571Y-79671428D02*
X142378571Y-79671428D01*
X143878571Y-78814285D01*
X142378571Y-78814285D01*
X143092857Y-78100000D02*
X143092857Y-77600000D01*
X143878571Y-77385714D02*
X143878571Y-78100000D01*
X142378571Y-78100000D01*
X142378571Y-77385714D01*
X142521428Y-75671428D02*
X142450000Y-75600000D01*
X142378571Y-75457142D01*
X142378571Y-75100000D01*
X142450000Y-74957142D01*
X142521428Y-74885714D01*
X142664285Y-74814285D01*
X142807142Y-74814285D01*
X143021428Y-74885714D01*
X143878571Y-75742857D01*
X143878571Y-74814285D01*
X142378571Y-73885714D02*
X142378571Y-73742857D01*
X142450000Y-73600000D01*
X142521428Y-73528571D01*
X142664285Y-73457142D01*
X142950000Y-73385714D01*
X143307142Y-73385714D01*
X143592857Y-73457142D01*
X143735714Y-73528571D01*
X143807142Y-73600000D01*
X143878571Y-73742857D01*
X143878571Y-73885714D01*
X143807142Y-74028571D01*
X143735714Y-74100000D01*
X143592857Y-74171428D01*
X143307142Y-74242857D01*
X142950000Y-74242857D01*
X142664285Y-74171428D01*
X142521428Y-74100000D01*
X142450000Y-74028571D01*
X142378571Y-73885714D01*
X142521428Y-72814285D02*
X142450000Y-72742857D01*
X142378571Y-72600000D01*
X142378571Y-72242857D01*
X142450000Y-72100000D01*
X142521428Y-72028571D01*
X142664285Y-71957142D01*
X142807142Y-71957142D01*
X143021428Y-72028571D01*
X143878571Y-72885714D01*
X143878571Y-71957142D01*
X142521428Y-71385714D02*
X142450000Y-71314285D01*
X142378571Y-71171428D01*
X142378571Y-70814285D01*
X142450000Y-70671428D01*
X142521428Y-70600000D01*
X142664285Y-70528571D01*
X142807142Y-70528571D01*
X143021428Y-70600000D01*
X143878571Y-71457142D01*
X143878571Y-70528571D01*
D11*
X157104761Y-99333333D02*
X157104761Y-100285714D01*
X155104761Y-100285714D01*
X155104761Y-98666666D02*
X156723809Y-98666666D01*
X156914285Y-98571428D01*
X157009523Y-98476190D01*
X157104761Y-98285714D01*
X157104761Y-97904761D01*
X157009523Y-97714285D01*
X156914285Y-97619047D01*
X156723809Y-97523809D01*
X155104761Y-97523809D01*
X157104761Y-96571428D02*
X155104761Y-96571428D01*
X156533333Y-95904761D01*
X155104761Y-95238095D01*
X157104761Y-95238095D01*
X157104761Y-94285714D02*
X155104761Y-94285714D01*
X157104761Y-93333333D02*
X155104761Y-93333333D01*
X157104761Y-92190476D01*
X155104761Y-92190476D01*
X156533333Y-91333333D02*
X156533333Y-90380952D01*
X157104761Y-91523809D02*
X155104761Y-90857142D01*
X157104761Y-90190476D01*
X157104761Y-89523809D02*
X155104761Y-89523809D01*
X157104761Y-87428571D02*
X156152380Y-88095238D01*
X157104761Y-88571428D02*
X155104761Y-88571428D01*
X155104761Y-87809523D01*
X155200000Y-87619047D01*
X155295238Y-87523809D01*
X155485714Y-87428571D01*
X155771428Y-87428571D01*
X155961904Y-87523809D01*
X156057142Y-87619047D01*
X156152380Y-87809523D01*
X156152380Y-88571428D01*
X156057142Y-86571428D02*
X156057142Y-85904761D01*
X157104761Y-85619047D02*
X157104761Y-86571428D01*
X155104761Y-86571428D01*
X155104761Y-85619047D01*
D12*
%TO.C,D9*%
X146461904Y-113452380D02*
X146461904Y-112452380D01*
X146700000Y-112452380D01*
X146842857Y-112500000D01*
X146938095Y-112595238D01*
X146985714Y-112690476D01*
X147033333Y-112880952D01*
X147033333Y-113023809D01*
X146985714Y-113214285D01*
X146938095Y-113309523D01*
X146842857Y-113404761D01*
X146700000Y-113452380D01*
X146461904Y-113452380D01*
X147509523Y-113452380D02*
X147700000Y-113452380D01*
X147795238Y-113404761D01*
X147842857Y-113357142D01*
X147938095Y-113214285D01*
X147985714Y-113023809D01*
X147985714Y-112642857D01*
X147938095Y-112547619D01*
X147890476Y-112500000D01*
X147795238Y-112452380D01*
X147604761Y-112452380D01*
X147509523Y-112500000D01*
X147461904Y-112547619D01*
X147414285Y-112642857D01*
X147414285Y-112880952D01*
X147461904Y-112976190D01*
X147509523Y-113023809D01*
X147604761Y-113071428D01*
X147795238Y-113071428D01*
X147890476Y-113023809D01*
X147938095Y-112976190D01*
X147985714Y-112880952D01*
%TO.C,Q1*%
X152904761Y-83447619D02*
X152809523Y-83400000D01*
X152714285Y-83304761D01*
X152571428Y-83161904D01*
X152476190Y-83114285D01*
X152380952Y-83114285D01*
X152428571Y-83352380D02*
X152333333Y-83304761D01*
X152238095Y-83209523D01*
X152190476Y-83019047D01*
X152190476Y-82685714D01*
X152238095Y-82495238D01*
X152333333Y-82400000D01*
X152428571Y-82352380D01*
X152619047Y-82352380D01*
X152714285Y-82400000D01*
X152809523Y-82495238D01*
X152857142Y-82685714D01*
X152857142Y-83019047D01*
X152809523Y-83209523D01*
X152714285Y-83304761D01*
X152619047Y-83352380D01*
X152428571Y-83352380D01*
X153809523Y-83352380D02*
X153238095Y-83352380D01*
X153523809Y-83352380D02*
X153523809Y-82352380D01*
X153428571Y-82495238D01*
X153333333Y-82590476D01*
X153238095Y-82638095D01*
%TO.C,L1*%
X146252380Y-89166666D02*
X146252380Y-89642857D01*
X145252380Y-89642857D01*
X146252380Y-88309523D02*
X146252380Y-88880952D01*
X146252380Y-88595238D02*
X145252380Y-88595238D01*
X145395238Y-88690476D01*
X145490476Y-88785714D01*
X145538095Y-88880952D01*
%TO.C,R1*%
X152633333Y-70502380D02*
X152300000Y-70026190D01*
X152061904Y-70502380D02*
X152061904Y-69502380D01*
X152442857Y-69502380D01*
X152538095Y-69550000D01*
X152585714Y-69597619D01*
X152633333Y-69692857D01*
X152633333Y-69835714D01*
X152585714Y-69930952D01*
X152538095Y-69978571D01*
X152442857Y-70026190D01*
X152061904Y-70026190D01*
X153585714Y-70502380D02*
X153014285Y-70502380D01*
X153300000Y-70502380D02*
X153300000Y-69502380D01*
X153204761Y-69645238D01*
X153109523Y-69740476D01*
X153014285Y-69788095D01*
%TO.C,U1*%
X145238095Y-76652380D02*
X145238095Y-77461904D01*
X145285714Y-77557142D01*
X145333333Y-77604761D01*
X145428571Y-77652380D01*
X145619047Y-77652380D01*
X145714285Y-77604761D01*
X145761904Y-77557142D01*
X145809523Y-77461904D01*
X145809523Y-76652380D01*
X146809523Y-77652380D02*
X146238095Y-77652380D01*
X146523809Y-77652380D02*
X146523809Y-76652380D01*
X146428571Y-76795238D01*
X146333333Y-76890476D01*
X146238095Y-76938095D01*
%TO.C,TP2*%
X143642857Y-68302380D02*
X143642857Y-67302380D01*
X144595238Y-68302380D02*
X144119047Y-68302380D01*
X144119047Y-67302380D01*
X144928571Y-67778571D02*
X145261904Y-67778571D01*
X145404761Y-68302380D02*
X144928571Y-68302380D01*
X144928571Y-67302380D01*
X145404761Y-67302380D01*
X145833333Y-68302380D02*
X145833333Y-67302380D01*
X146071428Y-67302380D01*
X146214285Y-67350000D01*
X146309523Y-67445238D01*
X146357142Y-67540476D01*
X146404761Y-67730952D01*
X146404761Y-67873809D01*
X146357142Y-68064285D01*
X146309523Y-68159523D01*
X146214285Y-68254761D01*
X146071428Y-68302380D01*
X145833333Y-68302380D01*
%TO.C,D7*%
X142881904Y-55452380D02*
X142881904Y-54452380D01*
X143120000Y-54452380D01*
X143262857Y-54500000D01*
X143358095Y-54595238D01*
X143405714Y-54690476D01*
X143453333Y-54880952D01*
X143453333Y-55023809D01*
X143405714Y-55214285D01*
X143358095Y-55309523D01*
X143262857Y-55404761D01*
X143120000Y-55452380D01*
X142881904Y-55452380D01*
X143786666Y-54452380D02*
X144453333Y-54452380D01*
X144024761Y-55452380D01*
%TO.C,SW1*%
X152604761Y-57533333D02*
X152652380Y-57390476D01*
X152652380Y-57152380D01*
X152604761Y-57057142D01*
X152557142Y-57009523D01*
X152461904Y-56961904D01*
X152366666Y-56961904D01*
X152271428Y-57009523D01*
X152223809Y-57057142D01*
X152176190Y-57152380D01*
X152128571Y-57342857D01*
X152080952Y-57438095D01*
X152033333Y-57485714D01*
X151938095Y-57533333D01*
X151842857Y-57533333D01*
X151747619Y-57485714D01*
X151700000Y-57438095D01*
X151652380Y-57342857D01*
X151652380Y-57104761D01*
X151700000Y-56961904D01*
X151652380Y-56628571D02*
X152652380Y-56390476D01*
X151938095Y-56200000D01*
X152652380Y-56009523D01*
X151652380Y-55771428D01*
X152652380Y-54866666D02*
X152652380Y-55438095D01*
X152652380Y-55152380D02*
X151652380Y-55152380D01*
X151795238Y-55247619D01*
X151890476Y-55342857D01*
X151938095Y-55438095D01*
%TO.C,C1*%
X154157142Y-97666666D02*
X154204761Y-97714285D01*
X154252380Y-97857142D01*
X154252380Y-97952380D01*
X154204761Y-98095238D01*
X154109523Y-98190476D01*
X154014285Y-98238095D01*
X153823809Y-98285714D01*
X153680952Y-98285714D01*
X153490476Y-98238095D01*
X153395238Y-98190476D01*
X153300000Y-98095238D01*
X153252380Y-97952380D01*
X153252380Y-97857142D01*
X153300000Y-97714285D01*
X153347619Y-97666666D01*
X154252380Y-96714285D02*
X154252380Y-97285714D01*
X154252380Y-97000000D02*
X153252380Y-97000000D01*
X153395238Y-97095238D01*
X153490476Y-97190476D01*
X153538095Y-97285714D01*
%TO.C,D1*%
X145952380Y-98238095D02*
X144952380Y-98238095D01*
X144952380Y-98000000D01*
X145000000Y-97857142D01*
X145095238Y-97761904D01*
X145190476Y-97714285D01*
X145380952Y-97666666D01*
X145523809Y-97666666D01*
X145714285Y-97714285D01*
X145809523Y-97761904D01*
X145904761Y-97857142D01*
X145952380Y-98000000D01*
X145952380Y-98238095D01*
X145952380Y-96714285D02*
X145952380Y-97285714D01*
X145952380Y-97000000D02*
X144952380Y-97000000D01*
X145095238Y-97095238D01*
X145190476Y-97190476D01*
X145238095Y-97285714D01*
%TO.C,D11*%
X151585714Y-113452380D02*
X151585714Y-112452380D01*
X151823809Y-112452380D01*
X151966666Y-112500000D01*
X152061904Y-112595238D01*
X152109523Y-112690476D01*
X152157142Y-112880952D01*
X152157142Y-113023809D01*
X152109523Y-113214285D01*
X152061904Y-113309523D01*
X151966666Y-113404761D01*
X151823809Y-113452380D01*
X151585714Y-113452380D01*
X153109523Y-113452380D02*
X152538095Y-113452380D01*
X152823809Y-113452380D02*
X152823809Y-112452380D01*
X152728571Y-112595238D01*
X152633333Y-112690476D01*
X152538095Y-112738095D01*
X154061904Y-113452380D02*
X153490476Y-113452380D01*
X153776190Y-113452380D02*
X153776190Y-112452380D01*
X153680952Y-112595238D01*
X153585714Y-112690476D01*
X153490476Y-112738095D01*
%TO.C,R2*%
X151633333Y-75052380D02*
X151300000Y-74576190D01*
X151061904Y-75052380D02*
X151061904Y-74052380D01*
X151442857Y-74052380D01*
X151538095Y-74100000D01*
X151585714Y-74147619D01*
X151633333Y-74242857D01*
X151633333Y-74385714D01*
X151585714Y-74480952D01*
X151538095Y-74528571D01*
X151442857Y-74576190D01*
X151061904Y-74576190D01*
X152014285Y-74147619D02*
X152061904Y-74100000D01*
X152157142Y-74052380D01*
X152395238Y-74052380D01*
X152490476Y-74100000D01*
X152538095Y-74147619D01*
X152585714Y-74242857D01*
X152585714Y-74338095D01*
X152538095Y-74480952D01*
X151966666Y-75052380D01*
X152585714Y-75052380D01*
%TO.C,R3*%
X152633333Y-64852380D02*
X152300000Y-64376190D01*
X152061904Y-64852380D02*
X152061904Y-63852380D01*
X152442857Y-63852380D01*
X152538095Y-63900000D01*
X152585714Y-63947619D01*
X152633333Y-64042857D01*
X152633333Y-64185714D01*
X152585714Y-64280952D01*
X152538095Y-64328571D01*
X152442857Y-64376190D01*
X152061904Y-64376190D01*
X152966666Y-63852380D02*
X153585714Y-63852380D01*
X153252380Y-64233333D01*
X153395238Y-64233333D01*
X153490476Y-64280952D01*
X153538095Y-64328571D01*
X153585714Y-64423809D01*
X153585714Y-64661904D01*
X153538095Y-64757142D01*
X153490476Y-64804761D01*
X153395238Y-64852380D01*
X153109523Y-64852380D01*
X153014285Y-64804761D01*
X152966666Y-64757142D01*
%TO.C,R4*%
X149702380Y-64166666D02*
X149226190Y-64500000D01*
X149702380Y-64738095D02*
X148702380Y-64738095D01*
X148702380Y-64357142D01*
X148750000Y-64261904D01*
X148797619Y-64214285D01*
X148892857Y-64166666D01*
X149035714Y-64166666D01*
X149130952Y-64214285D01*
X149178571Y-64261904D01*
X149226190Y-64357142D01*
X149226190Y-64738095D01*
X149035714Y-63309523D02*
X149702380Y-63309523D01*
X148654761Y-63547619D02*
X149369047Y-63785714D01*
X149369047Y-63166666D01*
%TO.C,TP1*%
X144238095Y-59100000D02*
X144142857Y-59052380D01*
X144000000Y-59052380D01*
X143857142Y-59100000D01*
X143761904Y-59195238D01*
X143714285Y-59290476D01*
X143666666Y-59480952D01*
X143666666Y-59623809D01*
X143714285Y-59814285D01*
X143761904Y-59909523D01*
X143857142Y-60004761D01*
X144000000Y-60052380D01*
X144095238Y-60052380D01*
X144238095Y-60004761D01*
X144285714Y-59957142D01*
X144285714Y-59623809D01*
X144095238Y-59623809D01*
X144714285Y-60052380D02*
X144714285Y-59052380D01*
X145285714Y-60052380D01*
X145285714Y-59052380D01*
X145761904Y-60052380D02*
X145761904Y-59052380D01*
X146000000Y-59052380D01*
X146142857Y-59100000D01*
X146238095Y-59195238D01*
X146285714Y-59290476D01*
X146333333Y-59480952D01*
X146333333Y-59623809D01*
X146285714Y-59814285D01*
X146238095Y-59909523D01*
X146142857Y-60004761D01*
X146000000Y-60052380D01*
X145761904Y-60052380D01*
D11*
%TO.C,BT1*%
X148214285Y-51457142D02*
X148214285Y-53742857D01*
X149357142Y-52600000D02*
X147071428Y-52600000D01*
X148742857Y-107614285D02*
X146457142Y-107614285D01*
D13*
%TO.C,D9*%
X145920000Y-112000000D02*
X147620000Y-112000000D01*
X145920000Y-110000000D02*
X147620000Y-110000000D01*
%TO.C,Q1*%
X153000000Y-78940000D02*
X153650000Y-78940000D01*
X153000000Y-78940000D02*
X152350000Y-78940000D01*
X153000000Y-82060000D02*
X152350000Y-82060000D01*
X153000000Y-82060000D02*
X154675000Y-82060000D01*
%TO.C,L1*%
X151350000Y-85380000D02*
X153120000Y-85380000D01*
X146880000Y-91620000D02*
X148650000Y-91620000D01*
X146880000Y-85380000D02*
X148650000Y-85380000D01*
X153120000Y-91620000D02*
X153120000Y-85380000D01*
X151350000Y-91620000D02*
X153120000Y-91620000D01*
X148500000Y-92000000D02*
X146500000Y-92000000D01*
X146500000Y-92000000D02*
X146500000Y-90000000D01*
X146880000Y-91620000D02*
X146880000Y-85380000D01*
%TO.C,R1*%
X153027064Y-67665000D02*
X152572936Y-67665000D01*
X153027064Y-69135000D02*
X152572936Y-69135000D01*
%TO.C,U1*%
X148610000Y-81400000D02*
X148610000Y-79600000D01*
X145390000Y-79600000D02*
X145390000Y-82050000D01*
%TO.C,TP2*%
X146200000Y-65800000D02*
G75*
G03*
X146200000Y-65800000I-1200000J0D01*
G01*
%TO.C,D7*%
X143420000Y-54000000D02*
X145120000Y-54000000D01*
X143420000Y-52000000D02*
X145120000Y-52000000D01*
D12*
%TO.C,SW1*%
X155500000Y-53500000D02*
X156500000Y-53500000D01*
X156500000Y-53500000D02*
X156500000Y-52500000D01*
X156500000Y-52500000D02*
X155500000Y-52500000D01*
X155500000Y-52500000D02*
X155500000Y-53500000D01*
G36*
X155500000Y-53500000D02*
G01*
X156500000Y-53500000D01*
X156500000Y-52500000D01*
X155500000Y-52500000D01*
X155500000Y-53500000D01*
G37*
X155300000Y-58500000D02*
X156700000Y-58500000D01*
X156700000Y-58500000D02*
X156700000Y-54500000D01*
X156700000Y-54500000D02*
X155300000Y-54500000D01*
X155300000Y-54500000D02*
X155300000Y-58500000D01*
X155300000Y-57200000D02*
X156700000Y-57200000D01*
X156700000Y-57200000D02*
X156700000Y-55800000D01*
X156700000Y-55800000D02*
X155300000Y-55800000D01*
X155300000Y-55800000D02*
X155300000Y-57200000D01*
X154300000Y-62500000D02*
X157700000Y-62500000D01*
X157700000Y-62500000D02*
X157700000Y-50500000D01*
X157700000Y-50500000D02*
X154300000Y-50500000D01*
X154300000Y-50500000D02*
X154300000Y-62500000D01*
D13*
%TO.C,C1*%
X152735000Y-97761252D02*
X152735000Y-97238748D01*
X151265000Y-97761252D02*
X151265000Y-97238748D01*
%TO.C,D1*%
X149650000Y-100900000D02*
X149650000Y-95500000D01*
X146350000Y-100900000D02*
X146350000Y-95500000D01*
X146350000Y-100900000D02*
X149650000Y-100900000D01*
%TO.C,D11*%
X153800000Y-112000000D02*
X155500000Y-112000000D01*
X153800000Y-110000000D02*
X155500000Y-110000000D01*
%TO.C,R2*%
X153027064Y-76935000D02*
X152572936Y-76935000D01*
X153027064Y-75465000D02*
X152572936Y-75465000D01*
%TO.C,R3*%
X153027064Y-66735000D02*
X152572936Y-66735000D01*
X153027064Y-65265000D02*
X152572936Y-65265000D01*
%TO.C,R4*%
X146865000Y-63772936D02*
X146865000Y-64227064D01*
X148335000Y-63772936D02*
X148335000Y-64227064D01*
%TO.C,TP1*%
X146200000Y-61600000D02*
G75*
G03*
X146200000Y-61600000I-1200000J0D01*
G01*
%TD*%
M02*
